<?xml version="1.0" standalone="no"?>
<!DOCTYPE svg PUBLIC "-//W3C//DTD SVG 20010904//EN"
 "http://www.w3.org/TR/2001/REC-SVG-20010904/DTD/svg10.dtd">
<svg version="1.0" xmlns="http://www.w3.org/2000/svg"
 width="500.000000pt" height="500.000000pt" viewBox="0 0 500.000000 500.000000"
 preserveAspectRatio="xMidYMid meet">

<g transform="translate(0.000000,500.000000) scale(0.100000,-0.100000)"
fill="#000000" stroke="none">
<path d="M2325 4994 c-535 -55 -936 -206 -1335 -502 -139 -104 -377 -339 -477
-473 -267 -357 -432 -760 -494 -1209 -20 -139 -17 -487 4 -635 62 -426 232
-834 490 -1175 84 -111 270 -306 377 -395 352 -292 772 -481 1240 -557 194
-31 546 -31 740 0 335 55 649 168 919 331 211 128 340 230 511 407 193 200
318 379 445 639 117 239 192 482 231 750 22 148 25 495 5 635 -88 639 -394
1202 -871 1602 -203 171 -495 341 -745 433 -137 51 -340 102 -498 126 -126 19
-448 33 -542 23z m-400 -1204 c144 -21 211 -86 202 -197 -9 -121 -117 -203
-269 -203 l-58 0 0 -59 c0 -78 6 -91 41 -91 36 0 60 -40 39 -65 -10 -12 -39
-15 -151 -15 l-139 0 -6 25 c-8 31 10 55 42 55 13 0 28 9 34 19 10 21 14 389
4 427 -4 14 -18 24 -42 30 -40 10 -55 42 -32 70 15 17 224 20 335 4z m545
-175 c59 -31 70 -64 70 -217 0 -143 4 -168 25 -168 15 0 45 -27 45 -40 0 -41
-93 -53 -147 -20 -32 19 -33 19 -75 0 -82 -37 -186 -19 -224 38 -10 15 -18 47
-18 74 -1 58 23 94 84 126 34 17 39 22 22 22 -37 0 -72 43 -72 89 0 80 74 125
192 117 36 -3 81 -12 98 -21z m424 14 c57 -16 86 -49 86 -99 0 -54 -28 -82
-77 -78 -45 4 -62 27 -44 61 18 35 7 47 -43 47 -47 0 -66 -13 -66 -46 0 -21
44 -47 120 -69 89 -27 130 -71 130 -143 0 -88 -84 -152 -200 -152 -111 1 -180
46 -180 119 0 69 82 109 125 61 16 -18 17 -23 5 -45 -11 -20 -11 -27 0 -40 17
-21 103 -20 124 1 34 34 8 66 -75 90 -94 28 -129 51 -150 100 -57 128 83 238
245 193z m415 1 c82 -23 118 -105 69 -157 -25 -27 -79 -31 -102 -7 -20 19 -20
28 -1 44 34 28 11 50 -50 50 -29 0 -65 -20 -65 -36 0 -24 30 -46 87 -64 137
-45 181 -90 170 -171 -11 -86 -85 -138 -193 -139 -134 0 -212 65 -182 152 12
33 35 48 76 48 42 0 59 -23 45 -61 -16 -41 4 -59 67 -59 39 0 52 4 64 22 24
34 2 57 -88 88 -96 34 -127 56 -145 103 -28 76 14 156 97 181 56 17 105 19
151 6z m-1495 -746 c13 -12 16 -41 16 -145 l0 -130 31 16 c53 28 122 30 171 7
72 -35 82 -63 88 -237 l5 -149 33 -7 c19 -4 49 -3 68 3 l34 9 0 145 0 145 -30
6 c-36 7 -44 17 -36 47 5 19 18 26 73 40 87 21 99 20 116 -4 13 -19 14 -19 55
1 81 40 147 2 147 -84 0 -66 -71 -109 -120 -73 -16 12 -17 18 -7 40 16 35 -2
44 -36 19 -27 -20 -27 -22 -30 -152 l-3 -131 31 -6 c37 -8 44 -18 36 -50 -6
-24 -7 -24 -130 -24 -90 0 -126 3 -130 13 -5 10 -7 10 -12 0 -4 -10 -40 -13
-130 -13 -123 0 -124 0 -130 24 -8 32 -1 42 36 49 l30 7 0 131 c0 109 -3 136
-17 151 -21 23 -76 24 -114 1 l-29 -17 0 -133 0 -133 30 -6 c33 -7 48 -37 29
-60 -10 -12 -36 -14 -133 -12 l-121 3 0 29 c0 25 5 31 33 38 l32 9 -2 267 -3
267 -30 5 c-54 9 -43 79 14 81 14 0 42 7 61 14 47 18 56 18 74 -1z m-319 -99
c88 -30 125 -80 125 -170 0 -67 -15 -99 -68 -147 -50 -45 -126 -71 -198 -66
l-55 3 3 -75 c3 -71 4 -75 28 -78 36 -5 51 -22 48 -51 l-3 -26 -145 0 -145 0
-3 32 c-3 28 0 33 25 38 15 4 34 8 41 11 10 3 12 54 10 230 l-3 227 -35 12
c-39 13 -51 45 -28 72 18 22 330 13 403 -12z m1422 -162 c62 -31 73 -66 73
-223 0 -74 4 -140 8 -146 4 -6 17 -14 30 -18 24 -8 30 -44 10 -64 -20 -20 -92
-14 -129 11 l-34 23 -27 -20 c-62 -44 -196 -28 -233 28 -47 72 -23 160 55 199
l47 24 -31 9 c-66 19 -81 129 -22 167 61 41 184 45 253 10z m427 16 c57 -16
86 -49 86 -99 0 -54 -28 -82 -77 -78 -45 4 -62 27 -44 61 18 35 7 47 -43 47
-47 0 -66 -13 -66 -46 0 -21 44 -47 120 -69 89 -27 130 -71 130 -143 0 -88
-84 -152 -200 -152 -111 1 -180 46 -180 119 0 69 82 109 125 61 16 -18 17 -23
5 -45 -11 -20 -11 -27 0 -40 17 -21 103 -20 124 1 34 34 8 66 -75 90 -94 28
-129 51 -150 100 -57 128 83 238 245 193z m495 -22 c69 -46 101 -149 62 -198
-18 -23 -27 -24 -145 -28 -121 -3 -126 -4 -126 -25 0 -32 34 -89 61 -103 13
-7 43 -13 66 -13 36 0 48 6 82 41 30 31 44 39 60 34 35 -11 36 -43 4 -83 -95
-116 -290 -109 -372 15 -70 105 -46 274 50 345 72 54 189 61 258 15z m-1665
-723 c13 -12 16 -41 16 -145 l0 -130 31 16 c53 28 122 30 171 7 72 -35 82 -63
88 -237 l5 -149 33 -7 c19 -4 49 -3 68 3 l34 9 0 144 0 144 -32 9 c-34 8 -46
34 -30 59 4 7 45 21 91 30 72 15 83 16 91 3 6 -8 10 -99 10 -203 l0 -187 30
-7 c37 -7 44 -17 36 -49 -6 -24 -7 -24 -130 -24 -90 0 -126 3 -130 13 -5 9 -7
9 -12 0 -4 -10 -40 -13 -130 -13 -123 0 -124 0 -130 24 -8 32 -1 42 36 49 l30
7 0 131 c0 109 -3 136 -17 151 -21 23 -76 24 -114 1 l-29 -17 0 -133 0 -133
30 -6 c33 -7 48 -37 29 -60 -10 -12 -36 -14 -133 -12 l-121 3 0 29 c0 25 5 31
33 38 l32 9 -2 267 -3 267 -30 5 c-54 9 -43 79 14 81 14 0 42 7 61 14 47 18
56 18 74 -1z m1476 -6 c36 -18 48 -31 59 -64 13 -38 13 -44 -5 -75 -26 -44
-66 -59 -102 -38 -32 18 -40 46 -17 63 26 19 15 50 -18 54 -23 3 -30 -2 -42
-32 -8 -19 -15 -60 -15 -91 l0 -55 43 0 c46 0 61 -7 69 -30 11 -32 -11 -50
-62 -50 l-50 0 0 -155 0 -155 39 -6 c41 -7 56 -24 46 -55 -6 -17 -19 -19 -140
-19 -134 0 -135 0 -141 24 -8 32 -1 42 36 49 l30 7 0 154 0 155 -31 3 c-63 6
-64 70 -2 76 29 3 31 6 36 56 9 94 59 165 134 191 54 20 82 18 133 -7z m-910
-30 c26 -28 26 -82 0 -108 -13 -13 -33 -20 -60 -20 -51 0 -80 27 -80 74 0 66
94 103 140 54z m-899 -38 c96 -27 144 -99 120 -180 -8 -28 -22 -47 -44 -60
-78 -48 -182 7 -117 63 26 22 26 69 0 92 -15 14 -31 17 -75 13 -46 -4 -61 -10
-90 -38 -72 -70 -93 -234 -43 -341 60 -131 189 -159 282 -62 44 46 45 46 70
29 37 -24 33 -55 -11 -98 -65 -62 -96 -73 -203 -73 -84 0 -101 3 -146 27 -60
32 -118 94 -147 157 -31 67 -31 226 0 294 39 84 100 142 180 172 45 16 173 19
224 5z m1348 -193 c69 -46 101 -149 62 -198 -18 -23 -27 -24 -145 -28 -121 -3
-126 -4 -126 -25 0 -32 34 -89 61 -103 13 -7 43 -13 66 -13 36 0 48 6 82 41
30 31 44 39 60 34 35 -11 36 -43 4 -83 -95 -116 -290 -109 -372 15 -70 105
-46 274 50 345 72 54 189 61 258 15z"/>
<path d="M1812 3708 c-8 -8 -12 -49 -12 -119 0 -103 1 -107 23 -113 35 -8 97
13 129 44 23 24 28 37 28 78 0 64 -24 96 -84 111 -57 14 -69 14 -84 -1z"/>
<path d="M2305 3550 c-17 -19 -15 -50 5 -50 19 0 10 -39 -12 -56 -23 -16 -22
-16 17 -10 22 3 55 6 73 6 30 0 32 2 32 35 0 64 -26 94 -81 95 -9 0 -24 -9
-34 -20z"/>
<path d="M2341 3356 c-38 -14 -61 -40 -61 -71 0 -82 123 -40 137 48 5 34 4 37
-18 36 -13 0 -39 -6 -58 -13z"/>
<path d="M1308 2724 c-5 -4 -8 -58 -8 -121 0 -124 -3 -119 65 -114 61 5 115
61 115 119 0 39 -23 83 -51 97 -34 18 -111 30 -121 19z"/>
<path d="M2758 2569 c-22 -12 -23 -42 -3 -59 21 -18 19 -36 -7 -55 -22 -15
-20 -16 42 -9 36 3 69 10 74 14 4 5 5 27 1 49 -10 60 -60 88 -107 60z"/>
<path d="M2796 2370 c-44 -13 -66 -39 -66 -76 0 -27 5 -35 23 -39 51 -13 100
27 113 93 6 29 4 32 -17 31 -13 0 -37 -5 -53 -9z"/>
<path d="M3662 2548 c-11 -13 -24 -35 -27 -50 l-7 -28 68 0 c82 0 99 8 89 41
-19 61 -82 80 -123 37z"/>
<path d="M3012 1558 c-11 -13 -24 -35 -27 -50 l-7 -28 68 0 c82 0 99 8 89 41
-19 61 -82 80 -123 37z"/>
</g>
</svg>
